<svg width="320" height="320" viewBox="0 0 320 320" fill="none" xmlns="http://www.w3.org/2000/svg">
<path fill-rule="evenodd" clip-rule="evenodd" d="M160 183C205.287 183 242 146.287 242 101C242 55.7127 205.287 19 160 19C114.713 19 78 55.7127 78 101C78 146.287 114.713 183 160 183ZM103 83L158 51.5L213.5 83L199.5 92L200 118.5C199.333 127.667 192 146 168 146V115.5C166.5 104 150 103.5 148.5 115.5V146C140 146.667 121.8 142.8 117 122V92L103 83Z" fill="url(#paint0_linear_503_13)"/>
<path d="M83.68 258.6C83.68 257.32 83.44 256.12 82.96 255C82.48 253.827 81.8133 252.813 80.96 251.96C80.1067 251.107 79.12 250.44 78 249.96C76.88 249.427 75.6533 249.16 74.32 249.16C73.04 249.16 71.84 249.4 70.72 249.88C69.6 250.36 68.6133 251.027 67.76 251.88C66.96 252.733 66.2933 253.747 65.76 254.92C65.28 256.04 65.04 257.24 65.04 258.52C65.04 259.8 65.28 261 65.76 262.12C66.24 263.24 66.9067 264.227 67.76 265.08C68.6133 265.88 69.6 266.547 70.72 267.08C71.8933 267.56 73.12 267.8 74.4 267.8C75.68 267.8 76.88 267.56 78 267.08C79.12 266.6 80.08 265.933 80.88 265.08C81.7333 264.227 82.4 263.24 82.88 262.12C83.4133 261 83.68 259.827 83.68 258.6ZM65.44 212.6V242.04C68.8533 238.467 73.12 236.68 78.24 236.68C81.28 236.68 84.0533 237.267 86.56 238.44C89.12 239.56 91.28 241.107 93.04 243.08C94.8533 245 96.2667 247.293 97.28 249.96C98.2933 252.573 98.8 255.373 98.8 258.36C98.8 261.4 98.2667 264.253 97.2 266.92C96.1867 269.587 94.7467 271.907 92.88 273.88C91.0133 275.853 88.8 277.427 86.24 278.6C83.7333 279.72 81.0133 280.28 78.08 280.28C72.7467 280.28 68.5333 278.333 65.44 274.44V279H50.96V212.6H65.44ZM107.054 237.96H121.534V244.68C123.08 242.227 124.974 240.36 127.214 239.08C129.454 237.747 132.067 237.08 135.054 237.08C135.427 237.08 135.827 237.08 136.254 237.08C136.734 237.08 137.267 237.133 137.854 237.24V251.08C135.934 250.12 133.854 249.64 131.614 249.64C128.254 249.64 125.72 250.653 124.014 252.68C122.36 254.653 121.534 257.56 121.534 261.4V279H107.054V237.96ZM158.799 212.6V279H144.319V212.6H158.799ZM182.374 258.28C182.374 259.667 182.614 260.947 183.094 262.12C183.628 263.24 184.294 264.227 185.094 265.08C185.948 265.933 186.934 266.6 188.054 267.08C189.228 267.56 190.454 267.8 191.734 267.8C193.014 267.8 194.214 267.56 195.334 267.08C196.508 266.6 197.494 265.933 198.294 265.08C199.148 264.227 199.814 263.24 200.294 262.12C200.828 260.947 201.094 259.693 201.094 258.36C201.094 257.08 200.828 255.88 200.294 254.76C199.814 253.587 199.148 252.573 198.294 251.72C197.494 250.867 196.508 250.2 195.334 249.72C194.214 249.24 193.014 249 191.734 249C190.454 249 189.228 249.24 188.054 249.72C186.934 250.2 185.948 250.867 185.094 251.72C184.294 252.573 183.628 253.56 183.094 254.68C182.614 255.8 182.374 257 182.374 258.28ZM167.094 258.12C167.094 255.08 167.708 252.253 168.934 249.64C170.161 246.973 171.868 244.68 174.054 242.76C176.241 240.787 178.828 239.24 181.814 238.12C184.854 237 188.161 236.44 191.734 236.44C195.254 236.44 198.508 237 201.494 238.12C204.534 239.187 207.148 240.707 209.334 242.68C211.574 244.6 213.308 246.92 214.534 249.64C215.761 252.307 216.374 255.267 216.374 258.52C216.374 261.773 215.734 264.76 214.454 267.48C213.228 270.147 211.521 272.467 209.334 274.44C207.148 276.36 204.508 277.853 201.414 278.92C198.374 279.987 195.068 280.52 191.494 280.52C187.974 280.52 184.721 279.987 181.734 278.92C178.748 277.853 176.161 276.333 173.974 274.36C171.841 272.387 170.161 270.04 168.934 267.32C167.708 264.547 167.094 261.48 167.094 258.12ZM224.71 212.6H239.19V243.16C241.163 240.76 243.163 239.16 245.19 238.36C247.217 237.507 249.59 237.08 252.31 237.08C257.483 237.08 261.377 238.52 263.99 241.4C266.657 244.227 267.99 248.067 267.99 252.92V279H253.51V258.28C253.51 256.2 253.35 254.52 253.03 253.24C252.71 251.96 252.177 250.973 251.43 250.28C250.15 249.16 248.603 248.6 246.79 248.6C244.337 248.6 242.443 249.347 241.11 250.84C239.83 252.28 239.19 254.36 239.19 257.08V279H224.71V212.6Z" fill="url(#paint1_linear_503_13)"/>
<defs>
<linearGradient id="paint0_linear_503_13" x1="182.5" y1="22.5" x2="134.5" y2="177" gradientUnits="userSpaceOnUse">
<stop stop-color="#F1A966"/>
<stop offset="0.760883" stop-color="#E18165"/>
</linearGradient>
<linearGradient id="paint1_linear_503_13" x1="190.643" y1="197.262" x2="175.085" y2="304.504" gradientUnits="userSpaceOnUse">
<stop stop-color="#F1A966"/>
<stop offset="0.760883" stop-color="#E18165"/>
</linearGradient>
</defs>
</svg>
